<svg width="3190" height="1703" viewBox="0 0 3190 1703" fill="none" xmlns="http://www.w3.org/2000/svg">
<rect width="3190" height="1703" fill="white"/>
<path d="M865.234 859.667C852.901 859.667 845.901 864 845.901 876C845.901 876.333 845.901 876.667 845.901 876.667H838.234C837.234 873 836.901 869 836.901 865.333C836.901 842.667 851.901 823 873.234 823C874.901 823 876.234 823 877.901 823.333V775.333C877.901 770.333 876.901 755.667 865.234 755.667C856.234 755.667 851.234 761.333 851.234 771.667H843.234C844.234 750 860.568 730 886.234 730C910.234 730 924.568 747 924.568 774.667V790.667L937.901 779.333C937.901 764 937.901 748.333 937.901 732.667H947.568C947.568 745.667 947.568 758.333 947.568 771.333L1001.57 725.333L1034.23 756L1048.23 744.333L1054.23 751.333L1034.57 767.667V767.333V905L1047.57 894.667L1053.9 905L946.901 986.333C931.234 970 908.901 960.333 886.568 960.333C865.568 960.333 849.901 967 835.568 978H829.234C836.901 960.667 853.568 941 877.901 930.667V859.667C874.234 859.667 868.234 859.667 865.234 859.667ZM947.568 835.667L992.901 812.667V779.667L974.901 761.333L947.568 784.333C947.568 801.333 947.568 818.667 947.568 835.667ZM947.568 846.333C947.568 854.667 947.568 862.667 947.568 870.667L992.901 847.667V823.667L947.568 846.333ZM947.568 881.333C947.568 898 947.568 914.667 947.568 931C958.234 935.667 968.234 942 976.568 950.333L992.901 937.667V858.333L947.568 881.333ZM937.901 927.667C937.901 882.667 937.901 837.333 937.901 792.333L924.568 803.667V924.667C929.234 925.333 933.568 926.333 937.901 927.667ZM1109.11 838C1099.11 843.333 1090.78 849.333 1090.78 858.333C1090.78 879.667 1126.11 888.667 1148.44 893.667C1148.44 883.333 1148.44 872.667 1148.44 862.333L1109.11 838ZM1114.78 983.667C1093.44 981 1069.78 964.667 1069.78 940C1069.78 922 1083.44 905 1108.44 892C1093.11 885.333 1081.11 875.667 1081.11 860.333C1081.11 845.667 1092.11 837.333 1102.11 832L1138.78 813L1187.78 844.667L1201.44 833.667L1207.11 841L1189.78 855V939L1205.78 955L1220.11 945.333L1221.78 952L1175.44 983.667L1149.78 958.333L1114.78 983.667ZM1148.44 903.667C1137.78 901.333 1125.44 898.333 1114.44 894.333C1112.11 897.667 1110.11 903.333 1110.11 909.667C1110.11 928.667 1120.78 955 1141.44 955C1143.78 955 1146.11 954.667 1148.44 954C1148.44 937.333 1148.44 920.333 1148.44 903.667ZM1292.39 942.333L1305.06 955L1314.72 947L1319.39 953.333L1278.06 982.333L1242.72 952L1230.06 960L1225.39 953.333L1247.72 939V794C1247.72 778 1246.39 774.333 1231.72 769.667V765L1286.06 726.667H1292.39V942.333ZM1343.43 787.333C1343.43 776 1335.76 772.333 1327.43 769.667V765L1381.76 726.667H1388.09V942.333L1400.76 955L1410.43 947L1415.09 953.333L1373.76 982.333L1338.43 952L1325.76 960L1321.09 953.333L1343.43 939V787.333ZM1455.76 860.667C1443.76 860.667 1434.76 856 1428.09 849.667L1424.76 856L1490.43 953.333L1504.76 944L1511.09 952L1460.09 985.333L1394.43 889.667L1444.09 813H1447.09C1451.09 819.667 1458.76 825.667 1468.76 825.667C1478.76 825.667 1486.43 819.667 1490.43 813H1496.76C1493.43 836.667 1482.76 860.667 1455.76 860.667ZM1553.95 1025C1544.95 1025 1535.95 1028 1528.95 1033.33L1524.28 1030.33C1531.61 1010.33 1551.28 993.333 1577.28 993.333C1592.61 993.333 1607.95 1000 1618.28 1011C1625.61 1010.33 1630.61 1004.33 1630.61 996.333C1630.61 982.333 1621.95 981.333 1619.61 960.333L1587.95 982.333L1540.28 948.667V855.333L1527.95 840.667L1514.61 849L1509.61 842.667L1554.61 812L1579.95 842.667V928L1618.95 952.333C1618.95 951 1618.95 949.333 1618.95 948L1618.61 855.333L1600.61 834L1632.95 812L1663.28 848V936C1663.28 963.333 1672.61 963.333 1672.61 975.667C1672.61 990.333 1658.61 993.667 1649.95 999.667L1588.28 1043.33C1580.95 1032.67 1569.61 1025 1553.95 1025ZM1787.27 940.333L1793.6 947.667L1743.6 983.667L1706.94 955L1695.94 963L1690.94 956.667L1711.94 942.333V854.333L1700.6 840L1687.94 848L1683.27 841.667L1727.94 811.333L1752.27 837.667L1775.6 811H1778.94C1782.27 816 1787.94 819.333 1793.94 819.333C1800.94 819.333 1806.27 815.667 1808.94 811H1818.94C1815.27 852.333 1795.94 857.667 1785.94 857.667C1778.6 857.667 1766.94 854.333 1755.94 844V942.333L1769.27 952.667L1787.27 940.333ZM1998.57 944L2006.57 950.333L1958.57 983.667L1926.57 955L1915.57 963L1910.57 956.667L1931.57 942.333V854.333L1920.24 840L1907.57 848L1902.57 841.667L1947.57 811.333L1972.91 841.667V942.333L1984.24 953.333L1998.57 944ZM1920.91 766.333L1952.57 738.333L1980.91 770.667L1949.24 798.667L1920.91 766.333ZM2181.03 944L2187.36 953.333L2137.7 987L2104.03 956.667L2115.36 945.333V863.333L2091.36 842.667L2077.03 854V945.333L2091.36 958.333L2059.36 987L2021.03 956.667L2034.03 945.333V857L2021.03 842.667L2008.36 850.667L2003.7 844L2050.03 812.333L2075.7 841L2112.03 812.333L2150.03 844.667L2164.03 833.333L2170.03 840.333L2153.7 853.667V940.667L2168.03 953.333L2181.03 944ZM2214.91 787.333C2214.91 776 2207.24 772.333 2198.91 769.667V765L2253.24 726.667H2259.58V942.333L2272.24 955L2281.91 947L2286.58 953.333L2245.24 982.333L2209.91 952L2197.24 960L2192.58 953.333L2214.91 939V787.333ZM2327.24 860.667C2315.24 860.667 2306.24 856 2299.58 849.667L2296.24 856L2361.91 953.333L2376.24 944L2382.58 952L2331.58 985.333L2265.91 889.667L2315.58 813H2318.58C2322.58 819.667 2330.24 825.667 2340.24 825.667C2350.24 825.667 2357.91 819.667 2361.91 813H2368.24C2364.91 836.667 2354.24 860.667 2327.24 860.667Z" fill="black"/>
</svg>
