<svg width="3190" height="1703" viewBox="0 0 3190 1703" fill="none" xmlns="http://www.w3.org/2000/svg">
<rect width="3190" height="1703" fill="black"/>
<path d="M891.7 720.8H789.4L913.3 894.2L871.3 934.7L721.6 718.4L763.6 667.4H891.7V720.8ZM961.267 667.4V795.2L1011.97 741.5V667.4H1063.87V892.7L974.467 962H970.567V896.6L1011.97 865.1V808.4L944.767 876.8L909.367 839.3V667.4H961.267ZM1211.99 748.7L1248.59 780.5L1165.79 881H1087.79V667.4H1213.19L1241.99 711.8L1211.99 748.7ZM1139.99 750.8L1172.09 714.2H1139.99V750.8ZM1139.99 826.1L1199.99 757.1H1139.99V826.1ZM1376.69 827.6V881H1295.09L1262.39 839.9V667.4H1376.69V720.8H1314.29V742.7H1376.69V788.3H1314.29V827.6H1376.69ZM1514.45 810.2L1583.15 895.7L1541.75 934.7L1449.35 821.6V881H1397.45V667.4H1449.35V707.6L1479.35 667.4H1483.85L1562.75 771.2L1514.45 810.2ZM1450.85 776.6H1499.15L1475.15 746L1450.85 776.6ZM1704.81 664.1L1747.11 700.4L1648.11 881H1640.31L1542.51 700.4L1585.11 664.1L1644.51 781.7L1704.81 664.1ZM1812.34 667.4V881H1760.44V667.4H1812.34ZM1887.93 667.4V728L1954.53 662.3L1989.93 701L1935.63 750.8L2004.63 846.8L1963.23 887.6L1887.93 772.4V881H1836.03V667.4H1887.93ZM2070.74 667.4V881H2018.84V667.4H2070.74ZM2253.04 667.4V931.7H2249.74L2201.14 888.5V818L2149.84 757.4V881H2097.94V694.7L2077.84 671V667.4H2139.04L2201.14 741.2V667.4H2253.04ZM2366.65 881L2265.25 726.2L2306.05 667.4H2444.95V720.8H2329.75L2393.05 820.1V758.3H2444.95V881H2366.65Z" fill="url(#paint0_linear_490_223)"/>
<mask id="path-3-outside-1_490_223" maskUnits="userSpaceOnUse" x="1765" y="815" width="711" height="304" fill="black">
<rect fill="white" x="1765" y="815" width="711" height="304"/>
<path d="M1937.06 1010.26H1931.96V909.404H1937.06V1010.26ZM1971.85 856.106C1971.85 858.447 1969.4 861.532 1964.51 865.362C1960.68 868.128 1956.85 870.787 1953.02 873.34C1950.89 875.043 1947.17 878.766 1941.85 884.511C1938.02 888.766 1934.94 890.894 1932.6 890.894C1927.28 886.426 1921.64 881.957 1915.68 877.489C1903.34 868.34 1893.34 863.766 1885.68 863.766C1878.45 867.596 1873.13 871.532 1869.72 875.574C1858.87 887.915 1853.45 904.723 1853.45 926C1853.45 950.043 1861.11 971 1876.43 988.872C1891.74 1006.53 1910.68 1015.36 1933.23 1015.36H1938.34C1943.45 1015.36 1948.45 1014.4 1953.34 1012.49C1958.23 1010.36 1963.45 1007.38 1968.98 1003.55C1970.04 1005.68 1970.57 1007.17 1970.57 1008.02C1969.09 1016.53 1966.64 1023.34 1963.23 1028.45C1957.49 1036.74 1948.77 1044.4 1937.06 1051.43V1090.68C1939.62 1092.38 1942.17 1093.98 1944.72 1095.47C1947.28 1097.17 1948.55 1099.4 1948.55 1102.17C1948.55 1103.87 1947.81 1105.57 1946.32 1107.28C1944.83 1108.98 1943.23 1109.83 1941.53 1109.83C1939.4 1109.19 1937.81 1108.55 1936.74 1107.91C1933.55 1105.57 1931.96 1101.96 1931.96 1097.06V1056.53C1930.04 1055.89 1928.87 1055.57 1928.45 1055.57C1923.55 1056.64 1918.55 1057.6 1913.45 1058.45C1908.55 1059.3 1903.87 1059.72 1899.4 1059.72C1873.87 1059.72 1852.17 1050.47 1834.3 1031.96C1816.64 1013.23 1807.81 990.149 1807.81 962.702C1807.81 948.234 1812.06 931.851 1820.57 913.553C1829.3 895.043 1839.94 881.638 1852.49 873.34C1858.87 870.574 1863.98 868.447 1867.81 866.957C1871.64 865.255 1874.62 863.447 1876.74 861.532C1873.13 859.404 1867.28 857.596 1859.19 856.106C1851.11 854.617 1845.36 853.872 1841.96 853.872C1837.91 853.872 1831.11 854.723 1821.53 856.426C1807.7 858.979 1797.49 862.17 1790.89 866H1784.51C1793.87 854.936 1807.38 845.255 1825.04 836.957C1842.91 828.66 1862.17 824.511 1882.81 824.511C1887.06 824.723 1890.89 825.043 1894.3 825.468C1904.09 826.745 1916.32 828.979 1931 832.17C1933.77 832.596 1940.79 835.574 1952.06 841.106C1965.26 847.702 1971.85 852.702 1971.85 856.106ZM2084.92 1042.81C2084.92 1044.3 2080.56 1048.02 2071.84 1053.98C2063.11 1059.94 2058.01 1062.91 2056.52 1062.91C2053.33 1062.91 2049.81 1059.83 2045.98 1053.66C2044.71 1051.53 2042.79 1048.13 2040.24 1043.45C2035.56 1044.94 2030.13 1047.6 2023.96 1051.43C2012.9 1058.23 2006.84 1061.64 2005.77 1061.64C2004.07 1061.64 2001.2 1059.09 1997.15 1053.98C1987.15 1041.43 1982.15 1025.79 1982.15 1007.06C1982.15 998.553 1982.9 991.532 1984.39 986C1986.09 980.468 1990.88 972.596 1998.75 962.383C2005.35 953.872 2014.28 947.277 2025.56 942.596C2034.5 938.766 2038.96 935.468 2038.96 932.702C2038.96 928.234 2035.67 923.766 2029.07 919.298C2022.47 914.617 2018.11 912.277 2015.98 912.277C2015.13 912.277 2012.69 912.915 2008.64 914.191C2004.6 915.468 2001.3 916.106 1998.75 916.106C1995.56 916.106 1992.47 915.362 1989.5 913.872C1986.73 912.383 1985.35 910.149 1985.35 907.17C1985.35 903.128 1987.26 901.106 1991.09 901.106C1992.37 901.106 1995.03 901.638 1999.07 902.702C2000.56 903.128 2001.73 903.34 2002.58 903.34C2005.98 903.34 2011.73 901.426 2019.81 897.596C2027.9 893.766 2036.09 889.723 2044.39 885.468C2047.79 885.468 2054.18 889.511 2063.54 897.596C2074.18 906.745 2079.5 914.83 2079.5 921.851V1030.36C2079.5 1031.43 2080.35 1033.77 2082.05 1037.38C2082.47 1038.45 2083.43 1040.26 2084.92 1042.81ZM2038.01 1029.09L2037.05 952.489C2030.88 954.617 2025.77 959.83 2021.73 968.128C2017.9 976.213 2015.98 982.809 2015.98 987.915C2015.98 996.851 2018.01 1006.21 2022.05 1016C2026.3 1025.57 2030.13 1030.36 2033.54 1030.36C2034.39 1029.94 2035.88 1029.51 2038.01 1029.09ZM2152.06 1038.98C2152.06 1040.68 2147.27 1044.62 2137.7 1050.79C2128.34 1056.74 2122.49 1059.72 2120.15 1059.72C2116.53 1059.72 2112.59 1056.85 2108.34 1051.11C2104.29 1045.15 2102.27 1040.04 2102.27 1035.79V899.511H2083.76V884.83C2097.17 884.83 2109.72 879.511 2121.42 868.872C2131 859.936 2136.85 851.213 2138.98 842.702H2143.44V876.213C2143.44 879.83 2146 882.702 2151.1 884.83V899.192H2144.4V1020.47C2144.4 1023.66 2145.68 1027.49 2148.23 1031.96C2150.78 1036.43 2152.06 1038.77 2152.06 1038.98ZM2228.53 1038.98C2228.53 1040.68 2223.74 1044.62 2214.16 1050.79C2204.8 1056.74 2198.95 1059.72 2196.61 1059.72C2192.99 1059.72 2189.06 1056.85 2184.8 1051.11C2180.76 1045.15 2178.74 1040.04 2178.74 1035.79V899.511H2160.23V884.83C2173.63 884.83 2186.18 879.511 2197.89 868.872C2207.46 859.936 2213.31 851.213 2215.44 842.702H2219.91V876.213C2219.91 879.83 2222.46 882.702 2227.57 884.83V899.192H2220.87V1020.47C2220.87 1023.66 2222.14 1027.49 2224.7 1031.96C2227.25 1036.43 2228.53 1038.77 2228.53 1038.98ZM2346.8 971.638C2346.8 982.064 2344.88 991.957 2341.05 1001.32C2338.5 1007.49 2335.42 1012.91 2331.8 1017.6C2324.99 1026.96 2319.67 1033.98 2315.84 1038.66C2304.35 1052.7 2296.8 1059.72 2293.18 1059.72C2290.2 1059.72 2286.59 1058.02 2282.33 1054.62C2278.08 1051 2274.03 1047.49 2270.2 1044.09C2259.56 1035.57 2251.37 1026 2245.63 1015.36C2239.88 1004.51 2237.01 992.489 2237.01 979.298C2237.01 969.936 2238.5 961.106 2241.48 952.809C2244.46 944.298 2248.39 936.851 2253.29 930.468C2276.91 899.404 2290.42 883.872 2293.82 883.872C2295.52 883.872 2301.27 888.979 2311.05 899.192C2321.91 910.255 2329.56 919.617 2334.03 927.277C2337.65 933.447 2340.63 940.574 2342.97 948.66C2345.52 956.532 2346.8 964.191 2346.8 971.638ZM2317.44 1009.94C2317.44 992.489 2313.08 975.894 2304.35 960.149C2291.37 936.957 2280.42 925.362 2271.48 925.362C2268.93 925.362 2267.12 927.383 2266.05 931.426C2265.2 935.255 2264.78 939.298 2264.78 943.553C2264.78 962.489 2268.5 977.596 2275.95 988.872C2281.48 997.383 2293.71 1009.09 2312.65 1023.98C2314.56 1022.06 2315.84 1020.15 2316.48 1018.23C2317.12 1016.32 2317.44 1013.55 2317.44 1009.94ZM2466.92 971.638C2466.92 982.064 2465 991.957 2461.17 1001.32C2458.62 1007.49 2455.53 1012.91 2451.92 1017.6C2445.11 1026.96 2439.79 1033.98 2435.96 1038.66C2424.47 1052.7 2416.92 1059.72 2413.3 1059.72C2410.32 1059.72 2406.7 1058.02 2402.45 1054.62C2398.19 1051 2394.15 1047.49 2390.32 1044.09C2379.68 1035.57 2371.49 1026 2365.75 1015.36C2360 1004.51 2357.13 992.489 2357.13 979.298C2357.13 969.936 2358.62 961.106 2361.6 952.809C2364.58 944.298 2368.51 936.851 2373.41 930.468C2397.02 899.404 2410.53 883.872 2413.94 883.872C2415.64 883.872 2421.38 888.979 2431.17 899.192C2442.02 910.255 2449.68 919.617 2454.15 927.277C2457.77 933.447 2460.75 940.574 2463.09 948.66C2465.64 956.532 2466.92 964.191 2466.92 971.638ZM2437.55 1009.94C2437.55 992.489 2433.19 975.894 2424.47 960.149C2411.49 936.957 2400.53 925.362 2391.6 925.362C2389.04 925.362 2387.24 927.383 2386.17 931.426C2385.32 935.255 2384.89 939.298 2384.89 943.553C2384.89 962.489 2388.62 977.596 2396.06 988.872C2401.6 997.383 2413.83 1009.09 2432.77 1023.98C2434.68 1022.06 2435.96 1020.15 2436.6 1018.23C2437.24 1016.32 2437.55 1013.55 2437.55 1009.94Z"/>
</mask>
<path d="M1937.06 1010.26V1019.26H1946.06V1010.26H1937.06ZM1931.96 1010.26H1922.96V1019.26H1931.96V1010.26ZM1931.96 909.404V900.404H1922.96V909.404H1931.96ZM1937.06 909.404H1946.06V900.404H1937.06V909.404ZM1964.51 865.362L1969.78 872.658L1969.92 872.556L1970.06 872.449L1964.51 865.362ZM1953.02 873.34L1948.03 865.852L1947.7 866.069L1947.4 866.313L1953.02 873.34ZM1941.85 884.511L1935.25 878.396L1935.2 878.443L1935.16 878.49L1941.85 884.511ZM1932.6 890.894L1926.81 897.785L1929.32 899.894H1932.6V890.894ZM1915.68 877.489L1921.08 870.289L1921.06 870.274L1921.04 870.26L1915.68 877.489ZM1885.68 863.766V854.766H1883.45L1881.47 855.812L1885.68 863.766ZM1869.72 875.574L1876.48 881.517L1876.55 881.445L1876.61 881.372L1869.72 875.574ZM1876.43 988.872L1869.59 994.729L1869.61 994.75L1869.63 994.77L1876.43 988.872ZM1953.34 1012.49L1956.62 1020.87L1956.78 1020.81L1956.93 1020.74L1953.34 1012.49ZM1968.98 1003.55L1977.03 999.528L1972.39 990.247L1963.86 996.153L1968.98 1003.55ZM1970.57 1008.02L1979.44 1009.57L1979.57 1008.8V1008.02H1970.57ZM1963.23 1028.45L1970.63 1033.57L1970.68 1033.5L1970.72 1033.44L1963.23 1028.45ZM1937.06 1051.43L1932.43 1043.71L1928.06 1046.33V1051.43H1937.06ZM1937.06 1090.68H1928.06V1095.5L1932.07 1098.17L1937.06 1090.68ZM1944.72 1095.47L1949.72 1087.98L1949.49 1087.83L1949.26 1087.69L1944.72 1095.47ZM1946.32 1107.28L1953.09 1113.2L1953.09 1113.2L1946.32 1107.28ZM1941.53 1109.83L1938.95 1118.45L1940.21 1118.83H1941.53V1109.83ZM1936.74 1107.91L1931.42 1115.17L1931.76 1115.42L1932.11 1115.63L1936.74 1107.91ZM1931.96 1056.53H1940.96V1050.05L1934.8 1047.99L1931.96 1056.53ZM1928.45 1055.57V1046.57H1927.48L1926.53 1046.78L1928.45 1055.57ZM1913.45 1058.45L1911.97 1049.57L1911.94 1049.57L1911.9 1049.58L1913.45 1058.45ZM1834.3 1031.96L1827.75 1038.13L1827.79 1038.17L1827.82 1038.21L1834.3 1031.96ZM1820.57 913.553L1812.43 909.717L1812.42 909.737L1812.41 909.758L1820.57 913.553ZM1852.49 873.34L1848.91 865.082L1848.19 865.397L1847.53 865.832L1852.49 873.34ZM1867.81 866.957L1871.07 875.345L1871.27 875.268L1871.46 875.182L1867.81 866.957ZM1876.74 861.532L1882.77 868.222L1891.9 860.003L1881.31 853.775L1876.74 861.532ZM1859.19 856.106L1860.82 847.255L1860.82 847.255L1859.19 856.106ZM1821.53 856.426L1819.96 847.564L1819.93 847.57L1819.9 847.575L1821.53 856.426ZM1790.89 866V875H1793.32L1795.41 873.783L1790.89 866ZM1784.51 866L1777.64 860.187L1765.11 875H1784.51V866ZM1825.04 836.957L1821.25 828.794L1821.23 828.803L1821.22 828.812L1825.04 836.957ZM1882.81 824.511L1883.26 815.522L1883.03 815.511H1882.81V824.511ZM1894.3 825.468L1895.46 816.544L1895.44 816.541L1895.41 816.538L1894.3 825.468ZM1931 832.17L1929.09 840.965L1929.36 841.024L1929.63 841.066L1931 832.17ZM1952.06 841.106L1956.09 833.057L1956.06 833.041L1956.03 833.026L1952.06 841.106ZM1937.06 1001.26H1931.96V1019.26H1937.06V1001.26ZM1940.96 1010.26V909.404H1922.96V1010.26H1940.96ZM1931.96 918.404H1937.06V900.404H1931.96V918.404ZM1928.06 909.404V1010.26H1946.06V909.404H1928.06ZM1962.85 856.106C1962.85 855.119 1963.11 854.481 1963.19 854.301C1963.27 854.127 1963.25 854.218 1962.96 854.583C1962.36 855.346 1961.13 856.576 1958.96 858.274L1970.06 872.449C1972.78 870.317 1975.23 868.09 1977.07 865.768C1978.77 863.625 1980.85 860.287 1980.85 856.106H1962.85ZM1959.24 858.066C1955.5 860.767 1951.76 863.363 1948.03 865.852L1958.01 880.829C1961.94 878.212 1965.86 875.488 1969.78 872.658L1959.24 858.066ZM1947.4 866.313C1944.66 868.5 1940.5 872.719 1935.25 878.396L1948.45 890.625C1953.84 884.813 1957.12 881.585 1958.64 880.368L1947.4 866.313ZM1935.16 878.49C1933.5 880.338 1932.3 881.375 1931.56 881.889C1931.2 882.134 1931.09 882.162 1931.2 882.116C1931.33 882.068 1931.82 881.894 1932.6 881.894V899.894C1936.39 899.894 1939.56 898.235 1941.77 896.707C1944.11 895.093 1946.37 892.938 1948.54 890.531L1935.16 878.49ZM1938.38 884.002C1932.93 879.42 1927.16 874.85 1921.08 870.289L1910.28 884.689C1916.12 889.065 1921.62 893.431 1926.81 897.785L1938.38 884.002ZM1921.04 870.26C1908.45 860.925 1896.43 854.766 1885.68 854.766V872.766C1890.25 872.766 1898.23 875.755 1910.32 884.719L1921.04 870.26ZM1881.47 855.812C1873.71 859.917 1867.28 864.502 1862.84 869.777L1876.61 881.372C1878.97 878.562 1883.18 875.274 1889.89 871.72L1881.47 855.812ZM1862.96 869.631C1850.29 884.051 1844.45 903.196 1844.45 926H1862.45C1862.45 906.251 1867.46 891.779 1876.48 881.517L1862.96 869.631ZM1844.45 926C1844.45 952.141 1852.84 975.188 1869.59 994.729L1883.26 983.015C1869.37 966.812 1862.45 947.944 1862.45 926H1844.45ZM1869.63 994.77C1886.58 1014.32 1907.96 1024.36 1933.23 1024.36V1006.36C1913.4 1006.36 1896.91 998.746 1883.22 982.975L1869.63 994.77ZM1933.23 1024.36H1938.34V1006.36H1933.23V1024.36ZM1938.34 1024.36C1944.6 1024.36 1950.71 1023.18 1956.62 1020.87L1950.06 1004.11C1946.18 1005.63 1942.29 1006.36 1938.34 1006.36V1024.36ZM1956.93 1020.74C1962.48 1018.33 1968.21 1015.03 1974.1 1010.95L1963.86 996.153C1958.69 999.731 1953.99 1002.39 1949.75 1004.24L1956.93 1020.74ZM1960.93 1007.58C1961.14 1008.01 1961.31 1008.37 1961.44 1008.66C1961.57 1008.96 1961.66 1009.17 1961.7 1009.29C1961.75 1009.43 1961.73 1009.4 1961.7 1009.26C1961.68 1009.18 1961.65 1009.04 1961.63 1008.85C1961.6 1008.66 1961.57 1008.38 1961.57 1008.02H1979.57C1979.57 1006.03 1979.02 1004.27 1978.65 1003.24C1978.22 1002.03 1977.65 1000.77 1977.03 999.528L1960.93 1007.58ZM1961.71 1006.47C1960.35 1014.22 1958.24 1019.72 1955.75 1023.45L1970.72 1033.44C1975.04 1026.96 1977.82 1018.85 1979.44 1009.57L1961.71 1006.47ZM1955.83 1023.32C1951.03 1030.27 1943.4 1037.13 1932.43 1043.71L1941.69 1059.14C1954.13 1051.68 1963.95 1043.22 1970.63 1033.57L1955.83 1023.32ZM1928.06 1051.43V1090.68H1946.06V1051.43H1928.06ZM1932.07 1098.17C1934.77 1099.97 1937.47 1101.66 1940.19 1103.24L1949.26 1087.69C1946.87 1086.3 1944.47 1084.8 1942.06 1083.19L1932.07 1098.17ZM1939.73 1102.96C1940.07 1103.18 1939.96 1103.19 1939.78 1102.89C1939.7 1102.74 1939.63 1102.58 1939.59 1102.42C1939.55 1102.27 1939.55 1102.18 1939.55 1102.17H1957.55C1957.55 1096.03 1954.45 1091.14 1949.72 1087.98L1939.73 1102.96ZM1939.55 1102.17C1939.55 1101.93 1939.58 1101.71 1939.62 1101.52C1939.66 1101.33 1939.71 1101.2 1939.75 1101.12C1939.82 1100.96 1939.81 1101.05 1939.55 1101.35L1953.09 1113.2C1955.54 1110.41 1957.55 1106.68 1957.55 1102.17H1939.55ZM1939.55 1101.35C1939.35 1101.58 1939.4 1101.45 1939.77 1101.25C1940.19 1101.03 1940.81 1100.83 1941.53 1100.83V1118.83C1946.61 1118.83 1950.49 1116.18 1953.09 1113.2L1939.55 1101.35ZM1944.12 1101.21C1943.24 1100.95 1942.57 1100.71 1942.08 1100.52C1941.57 1100.31 1941.37 1100.2 1941.38 1100.2L1932.11 1115.63C1934.13 1116.84 1936.57 1117.74 1938.95 1118.45L1944.12 1101.21ZM1942.07 1100.66C1941.74 1100.42 1940.96 1099.85 1940.96 1097.06H1922.96C1922.96 1104.07 1925.37 1110.73 1931.42 1115.17L1942.07 1100.66ZM1940.96 1097.06V1056.53H1922.96V1097.06H1940.96ZM1934.8 1047.99C1933.78 1047.65 1932.83 1047.35 1932.01 1047.13C1931.59 1047.01 1930.05 1046.57 1928.45 1046.57V1064.57C1928.2 1064.57 1927.99 1064.56 1927.85 1064.55C1927.69 1064.54 1927.57 1064.53 1927.48 1064.51C1927.3 1064.49 1927.18 1064.47 1927.14 1064.46C1927.07 1064.44 1927.1 1064.45 1927.28 1064.5C1927.63 1064.59 1928.22 1064.77 1929.11 1065.07L1934.8 1047.99ZM1926.53 1046.78C1921.79 1047.81 1916.93 1048.74 1911.97 1049.57L1914.93 1067.32C1920.17 1066.45 1925.32 1065.47 1930.36 1064.37L1926.53 1046.78ZM1911.9 1049.58C1907.46 1050.35 1903.3 1050.72 1899.4 1050.72V1068.72C1904.44 1068.72 1909.64 1068.24 1914.99 1067.31L1911.9 1049.58ZM1899.4 1050.72C1876.34 1050.72 1856.96 1042.48 1840.77 1025.71L1827.82 1038.21C1847.38 1058.46 1871.41 1068.72 1899.4 1068.72V1050.72ZM1840.85 1025.78C1824.87 1008.85 1816.81 988.02 1816.81 962.702H1798.81C1798.81 992.277 1808.4 1017.62 1827.75 1038.13L1840.85 1025.78ZM1816.81 962.702C1816.81 949.956 1820.57 934.897 1828.73 917.349L1812.41 909.758C1803.55 928.805 1798.81 946.512 1798.81 962.702H1816.81ZM1828.72 917.39C1836.98 899.853 1846.68 887.966 1857.45 880.848L1847.53 865.832C1833.19 875.311 1821.62 890.232 1812.43 909.717L1828.72 917.39ZM1856.07 881.598C1862.41 878.851 1867.39 876.775 1871.07 875.345L1864.55 858.569C1860.56 860.119 1855.34 862.297 1848.91 865.082L1856.07 881.598ZM1871.46 875.182C1875.8 873.257 1879.69 870.989 1882.77 868.222L1870.72 854.842C1869.54 855.905 1867.48 857.254 1864.15 858.733L1871.46 875.182ZM1881.31 853.775C1876.28 850.818 1869.15 848.789 1860.82 847.255L1857.56 864.957C1865.41 866.403 1869.97 867.991 1872.18 869.289L1881.31 853.775ZM1860.82 847.255C1852.74 845.767 1846.27 844.872 1841.96 844.872V862.872C1844.45 862.872 1849.47 863.468 1857.56 864.957L1860.82 847.255ZM1841.96 844.872C1837.04 844.872 1829.53 845.862 1819.96 847.564L1823.11 865.287C1832.68 863.584 1838.79 862.872 1841.96 862.872V844.872ZM1819.9 847.575C1805.76 850.185 1794.32 853.601 1786.37 858.217L1795.41 873.783C1800.65 870.74 1809.64 867.772 1823.17 865.276L1819.9 847.575ZM1790.89 857H1784.51V875H1790.89V857ZM1791.38 871.813C1799.67 862.016 1812 853.031 1828.87 845.103L1821.22 828.812C1802.77 837.479 1788.07 847.857 1777.64 860.187L1791.38 871.813ZM1828.83 845.121C1845.46 837.4 1863.42 833.511 1882.81 833.511V815.511C1860.92 815.511 1840.37 819.919 1821.25 828.794L1828.83 845.121ZM1882.36 833.499C1886.44 833.704 1890.04 834.006 1893.18 834.399L1895.41 816.538C1891.74 816.079 1887.69 815.743 1883.26 815.522L1882.36 833.499ZM1893.13 834.392C1902.58 835.624 1914.54 837.802 1929.09 840.965L1932.91 823.376C1918.1 820.155 1905.59 817.865 1895.46 816.544L1893.13 834.392ZM1929.63 841.066C1929.51 841.046 1929.85 841.099 1930.92 841.469C1931.89 841.806 1933.18 842.309 1934.83 843.009C1938.12 844.406 1942.53 846.453 1948.1 849.186L1956.03 833.026C1950.32 830.228 1945.58 828.019 1941.86 826.438C1938.45 824.993 1935.02 823.683 1932.37 823.275L1929.63 841.066ZM1948.04 849.156C1954.46 852.366 1958.83 854.974 1961.47 856.975C1962.8 857.985 1963.37 858.603 1963.53 858.81C1963.78 859.123 1962.85 858.132 1962.85 856.106H1980.85C1980.85 852.379 1979.1 849.486 1977.69 847.698C1976.21 845.804 1974.31 844.122 1972.34 842.631C1968.39 839.632 1962.86 836.443 1956.09 833.057L1948.04 849.156ZM2084.92 1042.81H2093.92V1040.38L2092.69 1038.27L2084.92 1042.81ZM2071.84 1053.98L2076.91 1061.41L2076.91 1061.41L2071.84 1053.98ZM2045.98 1053.66L2038.27 1058.29L2038.3 1058.35L2038.34 1058.41L2045.98 1053.66ZM2040.24 1043.45L2048.14 1039.14L2044.59 1032.62L2037.51 1034.87L2040.24 1043.45ZM2023.96 1051.43L2028.68 1059.09L2028.69 1059.08L2028.71 1059.07L2023.96 1051.43ZM1997.15 1053.98L2004.21 1048.39L2004.2 1048.38L2004.19 1048.37L1997.15 1053.98ZM1984.39 986L1975.79 983.353L1975.74 983.506L1975.7 983.66L1984.39 986ZM1998.75 962.383L1991.64 956.87L1991.63 956.879L1991.62 956.888L1998.75 962.383ZM2025.56 942.596L2029.01 950.908L2029.06 950.888L2029.1 950.868L2025.56 942.596ZM2029.07 919.298L2023.86 926.637L2023.94 926.694L2024.02 926.749L2029.07 919.298ZM2008.64 914.191L2011.35 922.774L2011.35 922.774L2008.64 914.191ZM1989.5 913.872L1985.23 921.797L1985.35 921.861L1985.47 921.922L1989.5 913.872ZM1999.07 902.702L2001.54 894.048L2001.45 894.022L2001.36 893.998L1999.07 902.702ZM2019.81 897.596L2015.96 889.462L2015.96 889.462L2019.81 897.596ZM2044.39 885.468V876.468H2042.22L2040.28 877.46L2044.39 885.468ZM2063.54 897.596L2057.66 904.407L2057.66 904.413L2057.67 904.419L2063.54 897.596ZM2082.05 1037.38L2090.4 1034.04L2090.31 1033.79L2090.19 1033.55L2082.05 1037.38ZM2038.01 1029.09L2039.77 1037.91L2047.1 1036.44L2047.01 1028.97L2038.01 1029.09ZM2037.05 952.489L2046.05 952.377L2045.89 939.92L2034.11 943.981L2037.05 952.489ZM2021.73 968.128L2013.64 964.186L2013.62 964.23L2013.6 964.275L2021.73 968.128ZM2022.05 1016L2013.73 1019.44L2013.78 1019.55L2013.82 1019.66L2022.05 1016ZM2033.54 1030.36V1039.36H2035.66L2037.56 1038.41L2033.54 1030.36ZM2075.92 1042.81C2075.92 1040.92 2076.57 1039.63 2076.77 1039.24C2077.03 1038.76 2077.24 1038.52 2077.2 1038.57C2077.12 1038.66 2076.74 1039.08 2075.81 1039.87C2073.99 1041.42 2071.04 1043.63 2066.76 1046.55L2076.91 1061.41C2081.36 1058.37 2084.94 1055.74 2087.49 1053.56C2088.74 1052.5 2089.99 1051.33 2091.01 1050.12C2091.51 1049.52 2092.13 1048.7 2092.66 1047.7C2093.14 1046.8 2093.92 1045.07 2093.92 1042.81H2075.92ZM2066.76 1046.55C2062.46 1049.48 2059.21 1051.58 2056.93 1052.91C2055.78 1053.58 2055.03 1053.96 2054.61 1054.15C2054.4 1054.25 2054.4 1054.23 2054.57 1054.18C2054.63 1054.16 2055.39 1053.91 2056.52 1053.91V1071.91C2059.04 1071.91 2061.24 1070.91 2062.02 1070.56C2063.25 1070 2064.6 1069.27 2066 1068.45C2068.83 1066.81 2072.49 1064.43 2076.91 1061.41L2066.76 1046.55ZM2056.52 1053.91C2057.93 1053.91 2058.29 1054.6 2057.43 1053.84C2056.6 1053.11 2055.31 1051.61 2053.63 1048.91L2038.34 1058.41C2040.49 1061.88 2042.87 1065.01 2045.55 1067.36C2048.2 1069.69 2051.91 1071.91 2056.52 1071.91V1053.91ZM2053.7 1049.03C2052.53 1047.07 2050.69 1043.8 2048.14 1039.14L2032.34 1047.76C2034.9 1052.45 2036.89 1055.99 2038.27 1058.29L2053.7 1049.03ZM2037.51 1034.87C2031.87 1036.66 2025.75 1039.72 2019.22 1043.78L2028.71 1059.07C2034.52 1055.47 2039.25 1053.21 2042.97 1052.02L2037.51 1034.87ZM2019.25 1043.76C2013.75 1047.15 2009.58 1049.62 2006.71 1051.24C2005.26 1052.05 2004.26 1052.58 2003.63 1052.88C2003.3 1053.03 2003.22 1053.06 2003.3 1053.03C2003.34 1053.02 2003.53 1052.95 2003.83 1052.87C2004.05 1052.82 2004.78 1052.64 2005.77 1052.64V1070.64C2007.65 1070.64 2009.19 1070.04 2009.51 1069.93C2010.17 1069.68 2010.82 1069.39 2011.39 1069.12C2012.54 1068.57 2013.94 1067.82 2015.52 1066.93C2018.71 1065.14 2023.12 1062.51 2028.68 1059.09L2019.25 1043.76ZM2005.77 1052.64C2007.49 1052.64 2008.55 1053.24 2008.66 1053.3C2008.86 1053.41 2008.75 1053.38 2008.32 1053C2007.45 1052.23 2006.1 1050.78 2004.21 1048.39L1990.1 1059.57C1992.25 1062.29 1994.36 1064.67 1996.36 1066.45C1997.36 1067.34 1998.55 1068.27 1999.89 1069.02C2001.14 1069.72 2003.2 1070.64 2005.77 1070.64V1052.64ZM2004.19 1048.37C1995.67 1037.67 1991.15 1024.1 1991.15 1007.06H1973.15C1973.15 1027.47 1978.64 1045.18 1990.12 1059.59L2004.19 1048.37ZM1991.15 1007.06C1991.15 999 1991.87 992.836 1993.08 988.34L1975.7 983.66C1973.93 990.228 1973.15 998.106 1973.15 1007.06H1991.15ZM1992.99 988.647C1994.18 984.793 1998.06 978.027 2005.88 967.878L1991.62 956.888C1983.7 967.165 1978.01 976.143 1975.79 983.353L1992.99 988.647ZM2005.86 967.896C2011.38 960.779 2018.98 955.071 2029.01 950.908L2022.11 934.283C2009.59 939.482 1999.31 946.966 1991.64 956.87L2005.86 967.896ZM2029.1 950.868C2033.81 948.851 2037.9 946.748 2040.96 944.491C2042.49 943.36 2044.09 941.955 2045.37 940.215C2046.66 938.461 2047.96 935.901 2047.96 932.702H2029.96C2029.96 930.886 2030.7 929.776 2030.88 929.538C2031.04 929.314 2030.97 929.491 2030.27 930.009C2028.86 931.05 2026.24 932.511 2022.01 934.323L2029.1 950.868ZM2047.96 932.702C2047.96 923.524 2041.29 916.707 2034.12 911.847L2024.02 926.749C2026.81 928.638 2028.41 930.205 2029.25 931.345C2029.65 931.889 2029.83 932.265 2029.9 932.467C2029.94 932.567 2029.95 932.63 2029.96 932.66C2029.96 932.689 2029.96 932.701 2029.96 932.702H2047.96ZM2034.28 911.958C2030.84 909.518 2027.76 907.524 2025.11 906.101C2022.92 904.929 2019.52 903.277 2015.98 903.277V921.277C2015.03 921.277 2014.58 921.051 2014.95 921.182C2015.21 921.276 2015.74 921.504 2016.6 921.962C2018.31 922.88 2020.7 924.396 2023.86 926.637L2034.28 911.958ZM2015.98 903.277C2014.21 903.277 2012.28 903.776 2011.24 904.047C2009.8 904.421 2008.02 904.951 2005.93 905.609L2011.35 922.774C2013.31 922.155 2014.77 921.728 2015.78 921.464C2016.29 921.331 2016.6 921.262 2016.76 921.232C2017.04 921.178 2016.66 921.277 2015.98 921.277V903.277ZM2005.93 905.609C2002.27 906.766 1999.98 907.106 1998.75 907.106V925.106C2002.63 925.106 2006.93 924.17 2011.35 922.774L2005.93 905.609ZM1998.75 907.106C1997.02 907.106 1995.31 906.715 1993.52 905.823L1985.47 921.922C1989.64 924.008 1994.1 925.106 1998.75 925.106V907.106ZM1993.76 905.948C1993.5 905.804 1993.75 905.879 1994.04 906.343C1994.17 906.558 1994.26 906.774 1994.3 906.957C1994.35 907.132 1994.35 907.216 1994.35 907.17H1976.35C1976.35 910.104 1977.05 913.094 1978.73 915.817C1980.4 918.515 1982.73 920.451 1985.23 921.797L1993.76 905.948ZM1994.35 907.17C1994.35 906.419 1994.53 907.527 1993.32 908.812C1992.01 910.188 1990.69 910.106 1991.09 910.106V892.106C1987.66 892.106 1983.47 893.035 1980.25 896.433C1977.12 899.739 1976.35 903.879 1976.35 907.17H1994.35ZM1991.09 910.106C1990.85 910.106 1990.82 910.086 1991.1 910.125C1991.35 910.159 1991.74 910.222 1992.28 910.331C1993.36 910.548 1994.85 910.898 1996.78 911.406L2001.36 893.998C1997.59 893.006 1993.75 892.106 1991.09 892.106V910.106ZM1996.6 911.356C1998.35 911.856 2000.47 912.34 2002.58 912.34V894.34C2002.86 894.34 2002.92 894.371 2002.67 894.326C2002.45 894.285 2002.08 894.203 2001.54 894.048L1996.6 911.356ZM2002.58 912.34C2005.72 912.34 2009.1 911.507 2012.29 910.442C2015.62 909.331 2019.44 907.734 2023.67 905.729L2015.96 889.462C2012.11 891.288 2009.01 892.563 2006.6 893.366C2004.04 894.217 2002.84 894.34 2002.58 894.34V912.34ZM2023.67 905.729C2031.84 901.858 2040.12 897.773 2048.5 893.476L2040.28 877.46C2032.06 881.674 2023.96 885.674 2015.96 889.462L2023.67 905.729ZM2044.39 894.468C2043.59 894.468 2043.39 894.266 2044.06 894.544C2044.65 894.788 2045.59 895.264 2046.91 896.103C2049.57 897.786 2053.13 900.497 2057.66 904.407L2069.42 890.784C2064.59 886.61 2060.27 883.256 2056.54 880.897C2053.28 878.831 2048.9 876.468 2044.39 876.468V894.468ZM2057.67 904.419C2068.08 913.374 2070.5 919.116 2070.5 921.851H2088.5C2088.5 910.543 2080.27 900.115 2069.41 890.772L2057.67 904.419ZM2070.5 921.851V1030.36H2088.5V921.851H2070.5ZM2070.5 1030.36C2070.5 1032.63 2071.24 1034.8 2071.68 1035.99C2072.23 1037.52 2073 1039.29 2073.91 1041.22L2090.19 1033.55C2089.4 1031.86 2088.89 1030.65 2088.59 1029.84C2088.52 1029.65 2088.47 1029.5 2088.44 1029.39C2088.42 1029.33 2088.41 1029.29 2088.4 1029.26C2088.39 1029.25 2088.39 1029.23 2088.39 1029.23C2088.39 1029.22 2088.39 1029.22 2088.39 1029.22C2088.39 1029.22 2088.39 1029.22 2088.39 1029.23C2088.39 1029.24 2088.39 1029.25 2088.4 1029.27C2088.41 1029.31 2088.42 1029.37 2088.43 1029.45C2088.45 1029.6 2088.5 1029.92 2088.5 1030.36H2070.5ZM2073.69 1040.73C2074.4 1042.48 2075.68 1044.82 2077.15 1047.34L2092.69 1038.27C2091.19 1035.69 2090.55 1034.41 2090.4 1034.04L2073.69 1040.73ZM2047.01 1028.97L2046.05 952.377L2028.05 952.602L2029.01 1029.2L2047.01 1028.97ZM2034.11 943.981C2024.89 947.161 2018.29 954.641 2013.64 964.186L2029.82 972.069C2033.26 965.019 2036.86 962.073 2039.98 960.998L2034.11 943.981ZM2013.6 964.275C2009.56 972.79 2006.98 980.825 2006.98 987.915H2024.98C2024.98 984.792 2026.24 979.636 2029.86 971.98L2013.6 964.275ZM2006.98 987.915C2006.98 998.227 2009.32 1008.76 2013.73 1019.44L2030.37 1012.56C2026.69 1003.67 2024.98 995.475 2024.98 987.915H2006.98ZM2013.82 1019.66C2016.08 1024.72 2018.47 1029.12 2021.08 1032.39C2023.41 1035.31 2027.55 1039.36 2033.54 1039.36V1021.36C2034.88 1021.36 2035.7 1021.85 2035.87 1021.96C2036 1022.04 2035.73 1021.89 2035.14 1021.15C2033.93 1019.63 2032.27 1016.85 2030.27 1012.34L2013.82 1019.66ZM2037.56 1038.41C2037.39 1038.5 2037.31 1038.52 2037.37 1038.5C2037.42 1038.48 2037.55 1038.44 2037.77 1038.38C2038.21 1038.25 2038.86 1038.09 2039.77 1037.91L2036.24 1020.26C2034.07 1020.69 2031.53 1021.3 2029.51 1022.31L2037.56 1038.41ZM2137.7 1050.79L2142.53 1058.38L2142.55 1058.37L2142.57 1058.35L2137.7 1050.79ZM2108.34 1051.11L2100.89 1056.16L2100.99 1056.31L2101.11 1056.46L2108.34 1051.11ZM2102.27 899.511H2111.27V890.511H2102.27V899.511ZM2083.76 899.511H2074.76V908.511H2083.76V899.511ZM2083.76 884.83V875.83H2074.76V884.83H2083.76ZM2121.42 868.872L2127.48 875.532L2127.52 875.492L2127.56 875.452L2121.42 868.872ZM2138.98 842.702V833.702H2131.95L2130.24 840.519L2138.98 842.702ZM2143.44 842.702H2152.44V833.702H2143.44V842.702ZM2151.1 884.83H2160.1V878.83L2154.56 876.522L2151.1 884.83ZM2151.1 899.192V908.192H2160.1V899.192H2151.1ZM2144.4 899.192V890.192H2135.4V899.192H2144.4ZM2148.23 1031.96L2156.04 1027.49L2156.04 1027.49L2148.23 1031.96ZM2143.06 1038.98C2143.06 1037.17 2143.66 1035.93 2143.88 1035.51C2144.14 1035.02 2144.35 1034.79 2144.3 1034.85C2144.21 1034.96 2143.77 1035.42 2142.75 1036.26C2140.76 1037.89 2137.52 1040.2 2132.82 1043.22L2142.57 1058.35C2147.45 1055.21 2151.39 1052.46 2154.19 1050.16C2155.56 1049.03 2156.92 1047.79 2158.02 1046.5C2158.58 1045.85 2159.23 1044.98 2159.79 1043.93C2160.31 1042.95 2161.06 1041.21 2161.06 1038.98H2143.06ZM2132.87 1043.19C2128.29 1046.11 2124.76 1048.17 2122.21 1049.47C2120.92 1050.12 2120.04 1050.51 2119.48 1050.71C2118.75 1050.97 2119.13 1050.72 2120.15 1050.72V1068.72C2122.33 1068.72 2124.32 1068.1 2125.63 1067.62C2127.13 1067.08 2128.73 1066.35 2130.37 1065.51C2133.67 1063.83 2137.75 1061.42 2142.53 1058.38L2132.87 1043.19ZM2120.15 1050.72C2120.81 1050.72 2120.74 1051 2119.79 1050.3C2118.81 1049.59 2117.38 1048.2 2115.57 1045.75L2101.11 1056.46C2105.54 1062.45 2111.84 1068.72 2120.15 1068.72V1050.72ZM2115.78 1046.05C2112.13 1040.66 2111.27 1037.38 2111.27 1035.79H2093.27C2093.27 1042.71 2096.46 1049.63 2100.89 1056.16L2115.78 1046.05ZM2111.27 1035.79V899.511H2093.27V1035.79H2111.27ZM2102.27 890.511H2083.76V908.511H2102.27V890.511ZM2092.76 899.511V884.83H2074.76V899.511H2092.76ZM2083.76 893.83C2099.8 893.83 2114.43 887.389 2127.48 875.532L2115.37 862.213C2105.01 871.632 2094.53 875.83 2083.76 875.83V893.83ZM2127.56 875.452C2137.82 865.878 2145 855.719 2147.71 844.885L2130.24 840.519C2128.7 846.707 2124.17 853.994 2115.28 862.293L2127.56 875.452ZM2138.98 851.702H2143.44V833.702H2138.98V851.702ZM2134.44 842.702V876.213H2152.44V842.702H2134.44ZM2134.44 876.213C2134.44 885.249 2141.21 890.459 2147.64 893.137L2154.56 876.522C2153.69 876.16 2153.08 875.827 2152.67 875.558C2152.26 875.289 2152.1 875.121 2152.09 875.101C2152.08 875.093 2152.19 875.222 2152.3 875.491C2152.41 875.768 2152.44 876.032 2152.44 876.213H2134.44ZM2142.1 884.83V899.192H2160.1V884.83H2142.1ZM2151.1 890.192H2144.4V908.192H2151.1V890.192ZM2135.4 899.192V1020.47H2153.4V899.192H2135.4ZM2135.4 1020.47C2135.4 1025.91 2137.51 1031.34 2140.42 1036.42L2156.04 1027.49C2153.84 1023.64 2153.4 1021.41 2153.4 1020.47H2135.4ZM2140.42 1036.42C2141.69 1038.64 2142.61 1040.28 2143.2 1041.37C2143.51 1041.93 2143.68 1042.27 2143.77 1042.45C2143.82 1042.55 2143.79 1042.49 2143.73 1042.34C2143.7 1042.28 2143.61 1042.06 2143.51 1041.76C2143.46 1041.61 2143.37 1041.33 2143.29 1040.98C2143.22 1040.7 2143.06 1039.95 2143.06 1038.98H2161.06C2161.06 1037.36 2160.59 1036.1 2160.58 1036.07C2160.46 1035.7 2160.34 1035.41 2160.27 1035.25C2160.13 1034.92 2159.98 1034.61 2159.87 1034.4C2159.64 1033.93 2159.34 1033.37 2159 1032.75C2158.32 1031.5 2157.33 1029.74 2156.04 1027.49L2140.42 1036.42ZM2214.16 1050.79L2219 1058.38L2219.02 1058.37L2219.04 1058.35L2214.16 1050.79ZM2184.8 1051.11L2177.35 1056.16L2177.46 1056.31L2177.57 1056.46L2184.8 1051.11ZM2178.74 899.511H2187.74V890.511H2178.74V899.511ZM2160.23 899.511H2151.23V908.511H2160.23V899.511ZM2160.23 884.83V875.83H2151.23V884.83H2160.23ZM2197.89 868.872L2203.94 875.532L2203.98 875.492L2204.03 875.452L2197.89 868.872ZM2215.44 842.702V833.702H2208.41L2206.71 840.519L2215.44 842.702ZM2219.91 842.702H2228.91V833.702H2219.91V842.702ZM2227.57 884.83H2236.57V878.83L2231.03 876.522L2227.57 884.83ZM2227.57 899.192V908.192H2236.57V899.192H2227.57ZM2220.87 899.192V890.192H2211.87V899.192H2220.87ZM2224.7 1031.96L2232.51 1027.49L2232.51 1027.49L2224.7 1031.96ZM2219.53 1038.98C2219.53 1037.17 2220.13 1035.93 2220.35 1035.51C2220.6 1035.02 2220.81 1034.79 2220.77 1034.85C2220.67 1034.96 2220.24 1035.42 2219.22 1036.26C2217.23 1037.89 2213.98 1040.2 2209.29 1043.22L2219.04 1058.35C2223.92 1055.21 2227.85 1052.46 2230.65 1050.16C2232.02 1049.03 2233.39 1047.79 2234.49 1046.5C2235.04 1045.85 2235.7 1044.98 2236.26 1043.93C2236.77 1042.95 2237.53 1041.21 2237.53 1038.98H2219.53ZM2209.33 1043.19C2204.75 1046.11 2201.23 1048.17 2198.67 1049.47C2197.39 1050.12 2196.5 1050.51 2195.95 1050.71C2195.21 1050.97 2195.6 1050.72 2196.61 1050.72V1068.72C2198.79 1068.72 2200.79 1068.1 2202.1 1067.62C2203.59 1067.08 2205.19 1066.35 2206.84 1065.51C2210.13 1063.83 2214.21 1061.42 2219 1058.38L2209.33 1043.19ZM2196.61 1050.72C2197.27 1050.72 2197.21 1051 2196.25 1050.3C2195.27 1049.59 2193.85 1048.2 2192.03 1045.75L2177.57 1056.46C2182.01 1062.45 2188.31 1068.72 2196.61 1068.72V1050.72ZM2192.25 1046.05C2188.59 1040.66 2187.74 1037.38 2187.74 1035.79H2169.74C2169.74 1042.71 2172.93 1049.63 2177.35 1056.16L2192.25 1046.05ZM2187.74 1035.79V899.511H2169.74V1035.79H2187.74ZM2178.74 890.511H2160.23V908.511H2178.74V890.511ZM2169.23 899.511V884.83H2151.23V899.511H2169.23ZM2160.23 893.83C2176.26 893.83 2190.9 887.389 2203.94 875.532L2191.83 862.213C2181.47 871.632 2171 875.83 2160.23 875.83V893.83ZM2204.03 875.452C2214.29 865.878 2221.46 855.719 2224.17 844.885L2206.71 840.519C2205.16 846.707 2200.64 853.994 2191.75 862.293L2204.03 875.452ZM2215.44 851.702H2219.91V833.702H2215.44V851.702ZM2210.91 842.702V876.213H2228.91V842.702H2210.91ZM2210.91 876.213C2210.91 885.249 2217.68 890.459 2224.11 893.137L2231.03 876.522C2230.16 876.16 2229.55 875.827 2229.14 875.558C2228.73 875.289 2228.57 875.121 2228.55 875.101C2228.54 875.093 2228.66 875.222 2228.76 875.491C2228.87 875.768 2228.91 876.032 2228.91 876.213H2210.91ZM2218.57 884.83V899.192H2236.57V884.83H2218.57ZM2227.57 890.192H2220.87V908.192H2227.57V890.192ZM2211.87 899.192V1020.47H2229.87V899.192H2211.87ZM2211.87 1020.47C2211.87 1025.91 2213.98 1031.34 2216.88 1036.42L2232.51 1027.49C2230.31 1023.64 2229.87 1021.41 2229.87 1020.47H2211.87ZM2216.88 1036.42C2218.15 1038.64 2219.07 1040.28 2219.67 1041.37C2219.97 1041.93 2220.15 1042.27 2220.24 1042.45C2220.29 1042.55 2220.26 1042.49 2220.19 1042.34C2220.17 1042.28 2220.07 1042.06 2219.97 1041.76C2219.92 1041.61 2219.83 1041.33 2219.75 1040.98C2219.69 1040.7 2219.53 1039.95 2219.53 1038.98H2237.53C2237.53 1037.36 2237.06 1036.1 2237.05 1036.07C2236.93 1035.7 2236.8 1035.41 2236.74 1035.25C2236.6 1034.92 2236.44 1034.61 2236.34 1034.4C2236.1 1033.93 2235.8 1033.37 2235.47 1032.75C2234.79 1031.5 2233.79 1029.74 2232.51 1027.49L2216.88 1036.42ZM2341.05 1001.32L2349.37 1004.76L2349.38 1004.74L2349.38 1004.73L2341.05 1001.32ZM2331.8 1017.6L2324.68 1012.09L2324.6 1012.2L2324.52 1012.3L2331.8 1017.6ZM2315.84 1038.66L2322.81 1044.36L2322.81 1044.36L2315.84 1038.66ZM2282.33 1054.62L2276.5 1061.47L2276.6 1061.56L2276.71 1061.64L2282.33 1054.62ZM2270.2 1044.09L2276.18 1037.36L2276.01 1037.2L2275.83 1037.06L2270.2 1044.09ZM2245.63 1015.36L2237.67 1019.57L2237.69 1019.61L2237.71 1019.64L2245.63 1015.36ZM2241.48 952.809L2249.95 955.849L2249.96 955.816L2249.97 955.782L2241.48 952.809ZM2253.29 930.468L2260.43 935.944L2260.44 935.93L2260.45 935.915L2253.29 930.468ZM2311.05 899.192L2304.56 905.419L2304.59 905.456L2304.63 905.493L2311.05 899.192ZM2334.03 927.277L2326.26 931.811L2326.26 931.82L2326.27 931.828L2334.03 927.277ZM2342.97 948.66L2334.32 951.162L2334.36 951.3L2334.41 951.436L2342.97 948.66ZM2304.35 960.149L2312.22 955.787L2312.22 955.77L2312.21 955.754L2304.35 960.149ZM2266.05 931.426L2257.35 929.135L2257.31 929.303L2257.27 929.473L2266.05 931.426ZM2275.95 988.872L2283.49 983.967L2283.48 983.94L2283.46 983.913L2275.95 988.872ZM2312.65 1023.98L2307.09 1031.05L2313.36 1035.99L2319.01 1030.34L2312.65 1023.98ZM2316.48 1018.23L2325.02 1021.08L2325.02 1021.08L2316.48 1018.23ZM2337.8 971.638C2337.8 980.932 2336.1 989.665 2332.72 997.911L2349.38 1004.73C2353.67 994.25 2355.8 983.196 2355.8 971.638H2337.8ZM2332.74 997.878C2330.45 1003.4 2327.75 1008.12 2324.68 1012.09L2338.92 1023.1C2343.08 1017.71 2346.55 1011.57 2349.37 1004.76L2332.74 997.878ZM2324.52 1012.3C2317.74 1021.63 2312.54 1028.48 2308.88 1032.96L2322.81 1044.36C2326.8 1039.48 2332.24 1032.29 2339.08 1022.89L2324.52 1012.3ZM2308.88 1032.96C2303.23 1039.86 2298.77 1044.77 2295.43 1047.87C2293.75 1049.43 2292.57 1050.33 2291.84 1050.79C2290.87 1051.4 2291.5 1050.72 2293.18 1050.72V1068.72C2296.67 1068.72 2299.61 1067.17 2301.42 1066.03C2303.48 1064.73 2305.59 1063 2307.69 1061.05C2311.91 1057.13 2316.97 1051.5 2322.81 1044.36L2308.88 1032.96ZM2293.18 1050.72C2293.39 1050.72 2293.07 1050.77 2292.07 1050.3C2291.08 1049.84 2289.71 1049 2287.95 1047.59L2276.71 1061.64C2281.4 1065.39 2287.05 1068.72 2293.18 1068.72V1050.72ZM2288.16 1047.76C2283.95 1044.18 2279.96 1040.71 2276.18 1037.36L2264.22 1050.81C2268.11 1054.26 2272.2 1057.82 2276.5 1061.47L2288.16 1047.76ZM2275.83 1037.06C2266.01 1029.21 2258.65 1020.54 2253.55 1011.09L2237.71 1019.64C2244.1 1031.46 2253.12 1041.94 2264.58 1051.11L2275.83 1037.06ZM2253.58 1011.15C2248.58 1001.69 2246.01 991.134 2246.01 979.298H2228.01C2228.01 993.845 2231.19 1007.33 2237.67 1019.57L2253.58 1011.15ZM2246.01 979.298C2246.01 970.908 2247.34 963.113 2249.95 955.849L2233.01 949.768C2229.66 959.1 2228.01 968.964 2228.01 979.298H2246.01ZM2249.97 955.782C2252.68 948.064 2256.18 941.484 2260.43 935.944L2246.15 924.992C2240.61 932.218 2236.24 940.532 2232.98 949.835L2249.97 955.782ZM2260.45 935.915C2272.23 920.428 2281.37 908.967 2287.92 901.428C2291.22 897.634 2293.71 895.017 2295.46 893.414C2296.35 892.598 2296.84 892.235 2297 892.13C2297.56 891.765 2296.22 892.872 2293.82 892.872V874.872C2290.57 874.872 2288.06 876.466 2287.14 877.071C2285.82 877.937 2284.51 879.03 2283.28 880.155C2280.8 882.435 2277.8 885.643 2274.34 889.615C2267.39 897.608 2257.97 909.444 2246.12 925.021L2260.45 935.915ZM2293.82 892.872C2292.06 892.872 2290.9 892.293 2290.82 892.255C2290.56 892.133 2290.52 892.085 2290.76 892.252C2291.24 892.581 2292.11 893.255 2293.43 894.429C2296.03 896.742 2299.72 900.368 2304.56 905.419L2317.55 892.964C2312.61 887.803 2308.53 883.769 2305.38 880.975C2303.83 879.596 2302.33 878.355 2300.94 877.407C2300.26 876.937 2299.42 876.409 2298.48 875.968C2297.72 875.611 2296.01 874.872 2293.82 874.872V892.872ZM2304.63 905.493C2315.28 916.358 2322.34 925.1 2326.26 931.811L2341.81 922.742C2336.79 914.134 2328.53 904.153 2317.48 892.89L2304.63 905.493ZM2326.27 931.828C2329.45 937.253 2332.16 943.671 2334.32 951.162L2351.61 946.157C2349.1 937.478 2345.85 929.641 2341.8 922.725L2326.27 931.828ZM2334.41 951.436C2336.7 958.511 2337.8 965.233 2337.8 971.638H2355.8C2355.8 963.15 2354.34 954.553 2351.53 945.883L2334.41 951.436ZM2326.44 1009.94C2326.44 990.914 2321.66 972.823 2312.22 955.787L2296.48 964.511C2304.49 978.965 2308.44 994.065 2308.44 1009.94H2326.44ZM2312.21 955.754C2305.56 943.878 2299.15 934.452 2292.94 927.877C2287 921.586 2279.78 916.362 2271.48 916.362V934.362C2272.12 934.362 2274.85 934.935 2279.86 940.24C2284.6 945.26 2290.17 953.228 2296.5 964.544L2312.21 955.754ZM2271.48 916.362C2267.47 916.362 2263.99 918.092 2261.5 920.877C2259.27 923.37 2258.07 926.413 2257.35 929.135L2274.76 933.716C2274.92 933.118 2275.05 932.777 2275.13 932.625C2275.2 932.471 2275.16 932.609 2274.92 932.879C2274.66 933.169 2274.19 933.582 2273.49 933.906C2272.77 934.237 2272.07 934.362 2271.48 934.362V916.362ZM2257.27 929.473C2256.26 933.995 2255.78 938.696 2255.78 943.553H2273.78C2273.78 939.9 2274.14 936.515 2274.84 933.378L2257.27 929.473ZM2255.78 943.553C2255.78 963.572 2259.7 980.603 2268.44 993.832L2283.46 983.913C2277.3 974.588 2273.78 961.407 2273.78 943.553H2255.78ZM2268.4 993.777C2274.83 1003.66 2288.15 1016.16 2307.09 1031.05L2318.21 1016.9C2299.28 1002.01 2288.13 991.105 2283.49 983.967L2268.4 993.777ZM2319.01 1030.34C2321.59 1027.76 2323.81 1024.69 2325.02 1021.08L2307.94 1015.39C2307.87 1015.6 2307.53 1016.37 2306.29 1017.61L2319.01 1030.34ZM2325.02 1021.08C2326.11 1017.79 2326.44 1013.88 2326.44 1009.94H2308.44C2308.44 1013.22 2308.12 1014.85 2307.94 1015.39L2325.02 1021.08ZM2461.17 1001.32L2469.49 1004.76L2469.49 1004.74L2469.5 1004.73L2461.17 1001.32ZM2451.92 1017.6L2444.79 1012.09L2444.71 1012.2L2444.64 1012.3L2451.92 1017.6ZM2435.96 1038.66L2442.92 1044.36L2442.92 1044.36L2435.96 1038.66ZM2402.45 1054.62L2396.62 1061.47L2396.72 1061.56L2396.83 1061.64L2402.45 1054.62ZM2390.32 1044.09L2396.3 1037.36L2396.12 1037.2L2395.94 1037.06L2390.32 1044.09ZM2365.75 1015.36L2357.79 1019.57L2357.81 1019.61L2357.83 1019.64L2365.75 1015.36ZM2361.6 952.809L2370.07 955.849L2370.08 955.816L2370.09 955.782L2361.6 952.809ZM2373.41 930.468L2380.55 935.944L2380.56 935.93L2380.57 935.915L2373.41 930.468ZM2431.17 899.192L2424.67 905.419L2424.71 905.456L2424.75 905.493L2431.17 899.192ZM2454.15 927.277L2446.38 931.811L2446.38 931.82L2446.39 931.828L2454.15 927.277ZM2463.09 948.66L2454.44 951.162L2454.48 951.3L2454.53 951.436L2463.09 948.66ZM2424.47 960.149L2432.34 955.787L2432.33 955.77L2432.32 955.754L2424.47 960.149ZM2386.17 931.426L2377.47 929.135L2377.42 929.303L2377.39 929.473L2386.17 931.426ZM2396.06 988.872L2403.61 983.967L2403.59 983.94L2403.58 983.913L2396.06 988.872ZM2432.77 1023.98L2427.2 1031.05L2433.48 1035.99L2439.13 1030.34L2432.77 1023.98ZM2436.6 1018.23L2445.13 1021.08L2445.13 1021.08L2436.6 1018.23ZM2457.92 971.638C2457.92 980.932 2456.21 989.665 2452.84 997.911L2469.5 1004.73C2473.79 994.25 2475.92 983.196 2475.92 971.638H2457.92ZM2452.86 997.878C2450.57 1003.4 2447.87 1008.12 2444.79 1012.09L2459.04 1023.1C2463.2 1017.71 2466.67 1011.57 2469.49 1004.76L2452.86 997.878ZM2444.64 1012.3C2437.86 1021.63 2432.66 1028.48 2428.99 1032.96L2442.92 1044.36C2446.92 1039.48 2452.36 1032.29 2459.19 1022.89L2444.64 1012.3ZM2428.99 1032.96C2423.34 1039.86 2418.88 1044.77 2415.55 1047.87C2413.87 1049.43 2412.69 1050.33 2411.96 1050.79C2410.98 1051.4 2411.61 1050.72 2413.3 1050.72V1068.72C2416.79 1068.72 2419.72 1067.17 2421.54 1066.03C2423.6 1064.73 2425.71 1063 2427.8 1061.05C2432.02 1057.13 2437.08 1051.5 2442.92 1044.36L2428.99 1032.96ZM2413.3 1050.72C2413.51 1050.72 2413.18 1050.77 2412.18 1050.3C2411.2 1049.84 2409.83 1049 2408.07 1047.59L2396.83 1061.64C2401.51 1065.39 2407.17 1068.72 2413.3 1068.72V1050.72ZM2408.28 1047.76C2404.07 1044.18 2400.08 1040.71 2396.3 1037.36L2384.34 1050.81C2388.22 1054.26 2392.32 1057.82 2396.62 1061.47L2408.28 1047.76ZM2395.94 1037.06C2386.13 1029.21 2378.77 1020.54 2373.66 1011.09L2357.83 1019.64C2364.21 1031.46 2373.24 1041.94 2384.7 1051.11L2395.94 1037.06ZM2373.7 1011.15C2368.69 1001.69 2366.13 991.134 2366.13 979.298H2348.13C2348.13 993.845 2351.31 1007.33 2357.79 1019.57L2373.7 1011.15ZM2366.13 979.298C2366.13 970.908 2367.46 963.113 2370.07 955.849L2353.13 949.768C2349.78 959.1 2348.13 968.964 2348.13 979.298H2366.13ZM2370.09 955.782C2372.79 948.064 2376.3 941.484 2380.55 935.944L2366.26 924.992C2360.72 932.218 2356.36 940.532 2353.1 949.835L2370.09 955.782ZM2380.57 935.915C2392.34 920.428 2401.48 908.967 2408.04 901.428C2411.34 897.634 2413.83 895.017 2415.58 893.414C2416.46 892.598 2416.96 892.235 2417.12 892.13C2417.68 891.765 2416.34 892.872 2413.94 892.872V874.872C2410.68 874.872 2408.18 876.466 2407.26 877.071C2405.93 877.937 2404.63 879.03 2403.4 880.155C2400.92 882.435 2397.92 885.643 2394.46 889.615C2387.51 897.608 2378.08 909.444 2366.24 925.021L2380.57 935.915ZM2413.94 892.872C2412.17 892.872 2411.01 892.293 2410.93 892.255C2410.67 892.133 2410.64 892.085 2410.88 892.252C2411.36 892.581 2412.22 893.255 2413.54 894.429C2416.15 896.742 2419.83 900.368 2424.67 905.419L2437.67 892.964C2432.72 887.803 2428.64 883.769 2425.5 880.975C2423.95 879.596 2422.44 878.355 2421.06 877.407C2420.38 876.937 2419.53 876.409 2418.6 875.968C2417.84 875.611 2416.13 874.872 2413.94 874.872V892.872ZM2424.75 905.493C2435.4 916.358 2442.46 925.1 2446.38 931.811L2461.92 922.742C2456.9 914.134 2448.64 904.153 2437.6 892.89L2424.75 905.493ZM2446.39 931.828C2449.57 937.253 2452.27 943.671 2454.44 951.162L2471.73 946.157C2469.22 937.478 2465.97 929.641 2461.91 922.725L2446.39 931.828ZM2454.53 951.436C2456.82 958.511 2457.92 965.233 2457.92 971.638H2475.92C2475.92 963.15 2474.46 954.553 2471.65 945.883L2454.53 951.436ZM2446.55 1009.94C2446.55 990.914 2441.78 972.823 2432.34 955.787L2416.6 964.511C2424.6 978.965 2428.55 994.065 2428.55 1009.94H2446.55ZM2432.32 955.754C2425.68 943.878 2419.27 934.452 2413.06 927.877C2407.11 921.586 2399.89 916.362 2391.6 916.362V934.362C2392.24 934.362 2394.96 934.935 2399.98 940.24C2404.72 945.26 2410.28 953.228 2416.62 964.544L2432.32 955.754ZM2391.6 916.362C2387.58 916.362 2384.11 918.092 2381.62 920.877C2379.39 923.37 2378.18 926.413 2377.47 929.135L2394.87 933.716C2395.03 933.118 2395.17 932.777 2395.24 932.625C2395.32 932.471 2395.27 932.609 2395.03 932.879C2394.77 933.169 2394.31 933.582 2393.61 933.906C2392.89 934.237 2392.18 934.362 2391.6 934.362V916.362ZM2377.39 929.473C2376.38 933.995 2375.89 938.696 2375.89 943.553H2393.89C2393.89 939.9 2394.26 936.515 2394.96 933.378L2377.39 929.473ZM2375.89 943.553C2375.89 963.572 2379.82 980.603 2388.55 993.832L2403.58 983.913C2397.42 974.588 2393.89 961.407 2393.89 943.553H2375.89ZM2388.52 993.777C2394.94 1003.66 2408.27 1016.16 2427.2 1031.05L2438.33 1016.9C2419.4 1002.01 2408.25 991.105 2403.61 983.967L2388.52 993.777ZM2439.13 1030.34C2441.71 1027.76 2443.93 1024.69 2445.13 1021.08L2428.06 1015.39C2427.99 1015.6 2427.65 1016.37 2426.4 1017.61L2439.13 1030.34ZM2445.13 1021.08C2446.23 1017.79 2446.55 1013.88 2446.55 1009.94H2428.55C2428.55 1013.22 2428.24 1014.85 2428.06 1015.39L2445.13 1021.08Z" fill="white" mask="url(#path-3-outside-1_490_223)"/>
<defs>
<linearGradient id="paint0_linear_490_223" x1="721" y1="635" x2="3189.86" y2="635" gradientUnits="userSpaceOnUse">
<stop stop-color="#541112"/>
<stop offset="0.48" stop-color="#BA2528"/>
<stop offset="1" stop-color="#541112"/>
</linearGradient>
</defs>
</svg>
